<svg xmlns="http://www.w3.org/2000/svg" viewBox="0 0 1040 560" role="img" aria-label="Hypervestor — a Webflow marketing site for an early-stage investor platform with dynamic deal listings, web design by Ivan Jose">
  <rect width="1040" height="560" fill="#efece3"/>
  <rect x="40" y="40" width="960" height="480" rx="18" fill="#f6f4ec" stroke="rgba(28,27,22,0.10)"/>
  <rect x="40" y="40" width="960" height="7" rx="3" fill="#111827"/>
  <text x="72" y="120" font-family="Georgia, 'Times New Roman', serif" font-size="20" letter-spacing="2.5" fill="#6b6658">WORDPRESS · DYNAMIC DEALS</text>
  <text x="70" y="250" font-family="'Segoe UI', Helvetica, Arial, sans-serif" font-size="72" font-weight="700" fill="#1c1b16">Hypervestor</text>
  <text x="72" y="316" font-family="'Segoe UI', Helvetica, Arial, sans-serif" font-size="34" font-weight="600" fill="#111827">Investor deal platform</text>
  <text x="72" y="470" font-family="'Segoe UI', Helvetica, Arial, sans-serif" font-size="24" fill="#6b6658">Webflow · dynamic deal listings &amp; domain sections</text>
  <g opacity="0.9"><rect x="720" y="175" width="230" height="52" rx="10" fill="none" stroke="#111827" stroke-width="2.5"/><circle cx="752" cy="201" r="14" fill="none" stroke="#111827" stroke-width="2"/><line x1="782" y1="195" x2="900" y2="195" stroke="#111827" stroke-width="2.5"/><line x1="782" y1="209" x2="860" y2="209" stroke="#111827" stroke-width="2" opacity="0.6"/><rect x="720" y="245" width="230" height="52" rx="10" fill="none" stroke="#111827" stroke-width="2.5"/><circle cx="752" cy="271" r="14" fill="none" stroke="#111827" stroke-width="2"/><line x1="782" y1="265" x2="900" y2="265" stroke="#111827" stroke-width="2.5"/><line x1="782" y1="279" x2="860" y2="279" stroke="#111827" stroke-width="2" opacity="0.6"/><rect x="720" y="315" width="230" height="52" rx="10" fill="none" stroke="#111827" stroke-width="2.5"/><circle cx="752" cy="341" r="14" fill="none" stroke="#111827" stroke-width="2"/><line x1="782" y1="335" x2="900" y2="335" stroke="#111827" stroke-width="2.5"/><line x1="782" y1="349" x2="860" y2="349" stroke="#111827" stroke-width="2" opacity="0.6"/></g>
</svg>